<svg width="14" height="14" viewBox="0 0 14 14" fill="none" xmlns="http://www.w3.org/2000/svg">
<path d="M6.99999 1.16667C3.78582 1.16667 1.16666 3.78584 1.16666 7C1.16666 10.2142 3.78582 12.8333 6.99999 12.8333C10.2142 12.8333 12.8333 10.2142 12.8333 7C12.8333 3.78584 10.2142 1.16667 6.99999 1.16667ZM9.53749 9.0825C9.45582 9.2225 9.30999 9.29834 9.15832 9.29834C9.08249 9.29834 9.00666 9.28084 8.93666 9.23417L7.12832 8.155C6.67916 7.88667 6.34666 7.2975 6.34666 6.77834V4.38667C6.34666 4.1475 6.54499 3.94917 6.78416 3.94917C7.02332 3.94917 7.22166 4.1475 7.22166 4.38667V6.77834C7.22166 6.98834 7.39666 7.2975 7.57749 7.4025L9.38582 8.48167C9.59582 8.60417 9.66582 8.8725 9.53749 9.0825Z" fill="#F2994A"/>
</svg>
