<?xml version="1.0" encoding="utf-8"?>
<!-- Generator: Adobe Illustrator 23.0.3, SVG Export Plug-In . SVG Version: 6.00 Build 0)  -->
<svg version="1.1" id="Layer_1" xmlns="http://www.w3.org/2000/svg" xmlns:xlink="http://www.w3.org/1999/xlink" x="0px" y="0px"
	 viewBox="0 0 50 50" style="enable-background:new 0 0 50 50;" xml:space="preserve">
<style type="text/css">
	.st0{fill:#2980B9;}
	.st1{fill:#037CC6;}
	.st2{fill:#9B59B6;}
	.st3{fill:#27AE60;}
	.st4{fill:#E74C3C;}
	.st5{fill:#34495E;}
	.st6{fill:#D35400;}
	.st7{fill:#E22D2D;}
	.st8{fill:#1ABC9C;}
	.st9{fill:#F39C12;}
	.st10{fill:#E67E22;}
	.st11{fill:url(#SVGID_1_);}
	.st12{fill:url(#SVGID_2_);}
	.st13{fill:url(#SVGID_3_);}
	.st14{fill:url(#SVGID_4_);}
	.st15{fill:url(#SVGID_5_);}
	.st16{fill:url(#SVGID_6_);}
	.st17{fill:url(#SVGID_7_);}
	.st18{fill:url(#SVGID_8_);}
	.st19{fill:url(#SVGID_9_);}
	.st20{fill:url(#SVGID_10_);}
	.st21{fill:url(#SVGID_11_);}
	.st22{fill:url(#SVGID_12_);}
	.st23{fill:url(#SVGID_13_);}
	.st24{fill:url(#SVGID_14_);}
	.st25{fill:url(#SVGID_15_);}
	.st26{fill:url(#SVGID_16_);}
	.st27{fill:url(#SVGID_17_);}
	.st28{fill:url(#SVGID_18_);}
	.st29{fill:url(#SVGID_19_);}
	.st30{fill:url(#SVGID_20_);}
	.st31{fill:url(#SVGID_21_);}
	.st32{fill:url(#SVGID_22_);}
	.st33{fill:url(#SVGID_23_);}
	.st34{fill:url(#SVGID_24_);}
	.st35{fill:url(#SVGID_25_);}
	.st36{fill:url(#SVGID_26_);}
	.st37{fill:url(#SVGID_27_);}
	.st38{fill:url(#SVGID_28_);}
	.st39{fill:url(#SVGID_29_);}
	.st40{fill:url(#SVGID_30_);}
	.st41{fill:url(#SVGID_31_);}
	.st42{fill:url(#SVGID_32_);}
	.st43{fill:#0C0C0C;}
	.st44{fill:none;stroke:#0C0C0C;stroke-width:2;stroke-linecap:round;stroke-linejoin:round;stroke-miterlimit:10;}
	.st45{fill:#FFFFFF;stroke:#0C0C0C;stroke-width:2;stroke-linecap:round;stroke-linejoin:round;stroke-miterlimit:10;}
	.st46{fill:#FB0101;}
	.st47{fill:url(#SVGID_33_);}
	.st48{fill:url(#SVGID_34_);}
	.st49{fill:#403D3D;}
	.st50{fill:#926DDE;}
	.st51{fill:#33CABB;}
</style>
<g>
	<linearGradient id="SVGID_1_" gradientUnits="userSpaceOnUse" x1="4.2351" y1="22.4021" x2="45.7644" y2="22.4021">
		<stop  offset="8.379889e-03" style="stop-color:#FB0101"/>
		<stop  offset="1" style="stop-color:#403D3D"/>
	</linearGradient>
	<path class="st11" d="M39.8,26.3v-9c0-0.4-0.2-0.7-0.5-0.9L31.5,12c0.3-0.8,0.4-1.6,0.4-2.4c0-3.9-3.1-7-7-7c-3.9,0-7,3.1-7,7
		c0,0.9,0.2,1.7,0.4,2.4l-7.7,4.4c-0.3,0.2-0.5,0.5-0.5,0.9v9c-3.4,0.5-6,3.4-6,6.9c0,3.9,3.1,7,7,7c2.2,0,4.2-1,5.5-2.7l7.8,4.5
		c0.2,0.1,0.3,0.1,0.5,0.1s0.3,0,0.5-0.1l7.8-4.5c0,0,0,0,0,0c1.3,1.6,3.3,2.7,5.5,2.7c3.9,0,7-3.1,7-7
		C45.8,29.7,43.2,26.8,39.8,26.3z M25,4.6c2.8,0,5,2.2,5,5s-2.2,5-5,5s-5-2.2-5-5S22.2,4.6,25,4.6z M11.2,38.3c-2.8,0-5-2.2-5-5
		s2.2-5,5-5s5,2.2,5,5S14,38.3,11.2,38.3z M32.3,35.9L25,40l-7.3-4.2c0.3-0.8,0.5-1.7,0.5-2.6c0-3.5-2.6-6.4-6-6.9v-8.4l7.2-4.1
		c1.3,1.7,3.3,2.8,5.6,2.8c2.3,0,4.3-1.1,5.6-2.8l7.2,4.1v8.4c-3.4,0.5-6,3.4-6,6.9C31.8,34.2,31.9,35,32.3,35.9
		C32.3,35.9,32.3,35.9,32.3,35.9z M38.8,38.3c-2.8,0-5-2.2-5-5s2.2-5,5-5s5,2.2,5,5S41.5,38.3,38.8,38.3z"/>
</g>
</svg>
