<svg width="14" height="14" viewBox="0 0 14 14" fill="none" xmlns="http://www.w3.org/2000/svg">
<path d="M7 1.16667C3.78583 1.16667 1.16667 3.78584 1.16667 7C1.16667 10.2142 3.78583 12.8333 7 12.8333C10.2142 12.8333 12.8333 10.2142 12.8333 7C12.8333 3.78584 10.2142 1.16667 7 1.16667ZM9.78833 5.65834L6.48083 8.96584C6.39917 9.0475 6.28833 9.09417 6.17167 9.09417C6.055 9.09417 5.94417 9.0475 5.8625 8.96584L4.21167 7.315C4.0425 7.14584 4.0425 6.86584 4.21167 6.69667C4.38083 6.5275 4.66083 6.5275 4.83 6.69667L6.17167 8.03834L9.17 5.04001C9.33917 4.87084 9.61917 4.87084 9.78833 5.04001C9.9575 5.20917 9.9575 5.48334 9.78833 5.65834Z" fill="#27AE60"/>
</svg>
